<?xml version="1.0" encoding="UTF-8" standalone="no"?>
<!-- Created with Inkscape (http://www.inkscape.org/) -->

<svg
   xmlns:dc="http://purl.org/dc/elements/1.1/"
   xmlns:cc="http://creativecommons.org/ns#"
   xmlns:rdf="http://www.w3.org/1999/02/22-rdf-syntax-ns#"
   xmlns:svg="http://www.w3.org/2000/svg"
   xmlns="http://www.w3.org/2000/svg"
   xmlns:sodipodi="http://sodipodi.sourceforge.net/DTD/sodipodi-0.dtd"
   xmlns:inkscape="http://www.inkscape.org/namespaces/inkscape"
   id="svg2"
   version="1.1"
   inkscape:version="0.48+devel r"
   width="470"
   height="91"
   sodipodi:docname="jack-logo.svg">
  <metadata
     id="metadata8">
    <rdf:RDF>
      <cc:Work
         rdf:about="">
        <dc:format>image/svg+xml</dc:format>
        <dc:type
           rdf:resource="http://purl.org/dc/dcmitype/StillImage" />
        <dc:title />
      </cc:Work>
    </rdf:RDF>
  </metadata>
  <defs
     id="defs6" />
  <sodipodi:namedview
     pagecolor="#ffffff"
     bordercolor="#666666"
     borderopacity="1"
     objecttolerance="10"
     gridtolerance="10"
     guidetolerance="10"
     inkscape:pageopacity="0"
     inkscape:pageshadow="2"
     inkscape:window-width="1912"
     inkscape:window-height="1005"
     id="namedview4"
     showgrid="false"
     inkscape:zoom="13.070944"
     inkscape:cx="405.77173"
     inkscape:cy="51.634057"
     inkscape:window-x="0"
     inkscape:window-y="0"
     inkscape:window-maximized="1"
     inkscape:current-layer="svg2" />
  <path
     style="color:#000000;fill:none;stroke:#00ff00;stroke-width:1;stroke-linecap:round;stroke-linejoin:round;stroke-miterlimit:3.97361731999999979;stroke-opacity:1;stroke-dasharray:none;stroke-dashoffset:0;marker:none;visibility:visible;display:inline;overflow:visible;enable-background:accumulate"
     d="M 224.61192 18.778743 L 405.3265 18.778744 C 408.63245 18.778744 411.29393 21.440219 411.29393 24.746178 L 411.29393 61.16283 C 411.29393 64.468789 408.63245 67.130264 405.3265 67.130264 L 224.61193 67.130264 "
     id="rect3071" />
  <path
     style="color:#000000;fill:none;stroke:#00ff00;stroke-width:1;stroke-linecap:round;stroke-linejoin:round;stroke-miterlimit:3.97361732;stroke-opacity:1;stroke-dashoffset:0;marker:none;visibility:visible;display:inline;overflow:visible;enable-background:accumulate"
     d="m 436.54077,18.625732 25.70586,14 c 2.9033,1.581205 5.96744,3.310647 5.96744,6.616606 l 0,3.928159 c 0,3.305958 -3.19264,5.360397 -5.96744,7.157581 l -25.70586,16.649171 c -2.7748,1.797184 -5.96744,-2.661476 -5.96744,-5.967434 l 0,-36.416648 c 0,-3.305959 3.06414,-7.54864 5.96744,-5.967435 z"
     id="rect3073"
     inkscape:connector-curvature="0"
     sodipodi:nodetypes="sssssssss" />
  <path
     style="color:#000000;fill:none;stroke:#00ff00;stroke-width:1;stroke-linecap:round;stroke-linejoin:round;stroke-miterlimit:3.97361732;stroke-opacity:1;stroke-dasharray:none;stroke-dashoffset:0;marker:none;visibility:visible;display:inline;overflow:visible;enable-background:accumulate"
     d="m 411.41229,58.433241 19.09646,0"
     id="path3076"
     inkscape:connector-curvature="0" />
  <path
     style="color:#000000;fill:none;stroke:#00ff00;stroke-width:1;stroke-linecap:round;stroke-linejoin:round;stroke-miterlimit:3.97361732;stroke-opacity:1;stroke-dasharray:none;stroke-dashoffset:0;marker:none;visibility:visible;display:inline;overflow:visible;enable-background:accumulate"
     d="m 411.41229,26.433241 19.09646,0"
     id="path3076-4"
     inkscape:connector-curvature="0" />
  <path
     style="color:#000000;fill:none;stroke:#00ff00;stroke-width:1;stroke-linecap:round;stroke-linejoin:round;stroke-miterlimit:3.97361731999999979;stroke-opacity:1;stroke-dasharray:none;stroke-dashoffset:0;marker:none;visibility:visible;display:inline;overflow:visible;enable-background:accumulate"
     d="M 218.81981 11.742499 C 222.04799 11.830284 224.62036 14.457523 224.62036 17.707667 L 224.62036 72.179628 C 224.62036 75.429772 222.04799 78.057011 218.81981 78.144796 "
     id="rect3096" />
  <path
     style="color:#000000;fill:none;stroke:#00ff00;stroke-width:1;stroke-linecap:round;stroke-linejoin:round;stroke-miterlimit:3.97361732;stroke-opacity:1;stroke-dasharray:none;stroke-dashoffset:0;marker:none;visibility:visible;display:inline;overflow:visible;enable-background:accumulate"
     d="m 53.25701,78.912119 -40.557091,0 c -5.6794676,0 -10.2517464,-4.572279 -10.2517464,-10.251746 l 0,-45.597315 c 0,-5.679467 4.5722788,-10.251746 10.2517464,-10.251746 l 40.557091,0"
     id="path3153"
     inkscape:connector-curvature="0"
     sodipodi:nodetypes="cssssc" />
  <path
     style="color:#000000;fill:none;stroke:#00ff00;stroke-width:1;stroke-linecap:round;stroke-linejoin:round;stroke-miterlimit:3.97361732;stroke-dashoffset:0;stroke-opacity:1;marker:none;visibility:visible;display:inline;overflow:visible;enable-background:accumulate"
     d="m 60.439392,1.6414981 151.174998,0 c 3.9841,0 7.19152,3.2074197 7.19152,7.191524 l 0,72.8332989 c 0,3.984104 -3.20742,7.191524 -7.19152,7.191524 l -151.174998,0 c -3.984105,0 -7.191524,-3.20742 -7.191524,-7.191524 l 0,-72.8332989 c 0,-3.9841043 3.207419,-7.191524 7.191524,-7.191524 z"
     id="rect3096-6-5" />
  <g
     transform="matrix(0.94475761,0,0,1.0584726,0,10)"
     style="font-size:58.49077225px;font-style:normal;font-variant:normal;font-weight:normal;font-stretch:normal;text-align:center;line-height:125%;writing-mode:lr-tb;text-anchor:middle;color:#000000;fill:none;stroke:#00ff00;stroke-width:1;stroke-linecap:round;stroke-linejoin:round;stroke-miterlimit:3.97361732;stroke-opacity:1;stroke-dashoffset:0;marker:none;visibility:visible;display:inline;overflow:visible;enable-background:accumulate;font-family:Arial;-inkscape-font-specification:Arial"
     id="text3256">
    <path
       d="m 70.864573,42.036462 4.997991,-0.685438 c 0.133273,3.198723 0.733031,5.388317 1.799276,6.568787 1.066229,1.180483 2.541825,1.770721 4.426792,1.770717 1.389903,4e-6 2.58942,-0.314155 3.598553,-0.942478 1.009101,-0.647353 1.704059,-1.513671 2.084877,-2.598955 0.38078,-1.104309 0.571179,-2.855984 0.571199,-5.255031 l 0,-28.845547 5.540629,0 0,28.531388 c -2.4e-5,3.503363 -0.428423,6.216556 -1.285197,8.139585 -0.837781,1.92304 -2.180097,3.389116 -4.026953,4.398232 -1.827854,1.009118 -3.979368,1.513676 -6.454548,1.513677 -3.674722,-1e-6 -6.492634,-1.056718 -8.453744,-3.170154 -1.942079,-2.113432 -2.875037,-5.255023 -2.798875,-9.424783"
       style="marker:none"
       id="path3261"
       inkscape:connector-curvature="0" />
    <path
       d="m 98.339242,53.9174 16.079248,-41.868883 5.96903,0 17.13597,41.868883 -6.31175,0 -4.88375,-12.680616 -17.50725,0 -4.59815,12.680616 -5.883348,0 m 12.080858,-17.193088 14.19429,0 -4.36967,-11.595339 c -1.33282,-3.522361 -2.32289,-6.416433 -2.97023,-8.682224 -0.53314,2.68467 -1.28522,5.350263 -2.25624,7.996786 l -4.59815,12.280777"
       style="marker:none"
       id="path3263"
       inkscape:connector-curvature="0" />
    <path
       d="m 171.8811,39.237587 5.54063,1.399438 c -1.16147,4.55056 -3.25587,8.02535 -6.28318,10.424381 -3.00835,2.379996 -6.69258,3.569992 -11.0527,3.569993 -4.51249,-1e-6 -8.1872,-0.913918 -11.02414,-2.741755 -2.81793,-1.846873 -4.96944,-4.512465 -6.45455,-7.996785 -1.46608,-3.4843 -2.19912,-7.22565 -2.19912,-11.224059 0,-4.360127 0.82824,-8.158596 2.48472,-11.39542 1.67551,-3.255798 4.04598,-5.721471 7.11142,-7.397026 3.08446,-1.694515 6.47357,-2.541793 10.16735,-2.541835 4.18876,4.2e-5 7.71115,1.066279 10.56718,3.198714 2.85595,2.132513 4.84563,5.131305 5.96903,8.996383 l -5.45495,1.285198 c -0.97108,-3.046362 -2.38003,-5.264516 -4.22688,-6.654468 -1.8469,-1.38988 -4.16977,-2.084838 -6.96862,-2.084876 -3.21778,3.8e-5 -5.91193,0.771156 -8.08247,2.313356 -2.15153,1.542271 -3.6652,3.617625 -4.54103,6.226068 -0.87585,2.589462 -1.31377,5.264575 -1.31376,8.025346 -1e-5,3.560491 0.51407,6.673522 1.54224,9.339102 1.04719,2.646565 2.66558,4.626719 4.85519,5.940469 2.18958,1.313763 4.56005,1.970641 7.11143,1.970637 3.10349,4e-6 5.731,-0.894874 7.88254,-2.684635 2.15149,-1.789748 3.60804,-4.445821 4.36967,-7.968226"
       style="marker:none"
       id="path3265"
       inkscape:connector-curvature="0" />
    <path
       d="m 183.93341,53.9174 0,-41.868883 5.54063,0 0,20.763082 20.79164,-20.763082 7.51126,0 -17.56436,16.964609 18.33548,24.904274 -7.31134,0 -14.9083,-21.191481 -6.85438,6.683028 0,14.508453 -5.54063,0"
       style="marker:none"
       id="path3267"
       inkscape:connector-curvature="0" />
  </g>
  <path
     id="path3197-5-1"
     style="color:#000000;fill:none;stroke:#00ff00;stroke-width:1;stroke-linecap:round;stroke-linejoin:round;stroke-miterlimit:3.97361732;stroke-opacity:1;stroke-dasharray:none;stroke-dashoffset:0;marker:none;visibility:visible;display:inline;overflow:visible;enable-background:accumulate"
     d="m 392.34278,67.206768 0,-48.351518 0.9863,0 0,48.351518 0.98631,0 0,-48.351518 0.9863,0 0,48.351518 0.9863,0 0,-48.351518 0.9863,0 0,48.351518 0.9863,0 0,-48.351518 0.9863,0 0,48.351518 0.9863,0 0,-48.351518"
     inkscape:connector-curvature="0"
     sodipodi:nodetypes="cccccccccccccccccc" />
</svg>
